<svg width="48" height="48" viewBox="0 0 48 48" fill="none" xmlns="http://www.w3.org/2000/svg">
<rect x="0.5" y="0.5" width="47" height="47" rx="23.5" stroke="black"/>
<g clip-path="url(#clip0_16_2172)">
<path d="M26.6668 21.3332V21.0665C26.6668 20.7513 26.6048 20.4392 26.4841 20.1481C26.3635 19.8569 26.1867 19.5923 25.9639 19.3694C25.741 19.1466 25.4765 18.9698 25.1853 18.8492C24.8941 18.7286 24.582 18.6665 24.2668 18.6665H23.7335C23.097 18.6665 22.4865 18.9194 22.0364 19.3694C21.5864 19.8195 21.3335 20.43 21.3335 21.0665V26.9332C21.3335 27.5697 21.5864 28.1801 22.0364 28.6302C22.4865 29.0803 23.097 29.3332 23.7335 29.3332H24.2668C24.582 29.3332 24.8941 29.2711 25.1853 29.1505C25.4765 29.0299 25.741 28.8531 25.9639 28.6302C26.1867 28.4074 26.3635 28.1428 26.4841 27.8516C26.6048 27.5604 26.6668 27.2483 26.6668 26.9332V26.6665" stroke="#2C3E50" stroke-linecap="round" stroke-linejoin="round"/>
<path d="M12 16C12 14.9391 12.4214 13.9217 13.1716 13.1716C13.9217 12.4214 14.9391 12 16 12H32C33.0609 12 34.0783 12.4214 34.8284 13.1716C35.5786 13.9217 36 14.9391 36 16V32C36 33.0609 35.5786 34.0783 34.8284 34.8284C34.0783 35.5786 33.0609 36 32 36H16C14.9391 36 13.9217 35.5786 13.1716 34.8284C12.4214 34.0783 12 33.0609 12 32V16Z" stroke="#2C3E50" stroke-linecap="round" stroke-linejoin="round"/>
</g>
<defs>
<clipPath id="clip0_16_2172">
<rect width="32" height="32" fill="white" transform="translate(8 8)"/>
</clipPath>
</defs>
</svg>
