<svg width="73" height="72" viewBox="0 0 73 72" fill="none" xmlns="http://www.w3.org/2000/svg">
<path d="M6.50098 9H9.50098C11.0923 9 12.6184 9.63214 13.7436 10.7574C14.8688 11.8826 15.501 13.4087 15.501 15V45C15.501 46.5913 16.1331 48.1174 17.2583 49.2426C18.3836 50.3679 19.9097 51 21.501 51H66.501" stroke="#98A994" stroke-width="3" stroke-linecap="round" stroke-linejoin="round"/>
<path d="M27.5 27C27.5 24.6131 28.4482 22.3239 30.136 20.636C31.8239 18.9482 34.1131 18 36.5 18H48.5C50.887 18 53.1761 18.9482 54.864 20.636C56.5518 22.3239 57.5 24.6131 57.5 27V33C57.5 35.3869 56.5518 37.6761 54.864 39.364C53.1761 41.0518 50.887 42 48.5 42H36.5C34.1131 42 31.8239 41.0518 30.136 39.364C28.4482 37.6761 27.5 35.3869 27.5 33V27Z" stroke="#98A994" stroke-width="3" stroke-linecap="round" stroke-linejoin="round"/>
<path d="M21.499 57.001C21.499 58.5923 22.1312 60.1184 23.2564 61.2436C24.3816 62.3688 25.9077 63.001 27.499 63.001C29.0903 63.001 30.6164 62.3688 31.7417 61.2436C32.8669 60.1184 33.499 58.5923 33.499 57.001C33.499 55.4097 32.8669 53.8836 31.7417 52.7583C30.6164 51.6331 29.0903 51.001 27.499 51.001C25.9077 51.001 24.3816 51.6331 23.2564 52.7583C22.1312 53.8836 21.499 55.4097 21.499 57.001Z" stroke="#98A994" stroke-width="3" stroke-linecap="round" stroke-linejoin="round"/>
<path d="M48.499 57.001C48.499 58.5923 49.1312 60.1184 50.2564 61.2436C51.3816 62.3688 52.9077 63.001 54.499 63.001C56.0903 63.001 57.6164 62.3688 58.7417 61.2436C59.8669 60.1184 60.499 58.5923 60.499 57.001C60.499 55.4097 59.8669 53.8836 58.7417 52.7583C57.6164 51.6331 56.0903 51.001 54.499 51.001C52.9077 51.001 51.3816 51.6331 50.2564 52.7583C49.1312 53.8836 48.499 55.4097 48.499 57.001Z" stroke="#98A994" stroke-width="3" stroke-linecap="round" stroke-linejoin="round"/>
</svg>
