<svg width="73" height="72" viewBox="0 0 73 72" fill="none" xmlns="http://www.w3.org/2000/svg">
<path d="M27.5 12C27.5 11.2044 27.8161 10.4413 28.3787 9.87868C28.9413 9.31607 29.7044 9 30.5 9H42.5C43.2956 9 44.0587 9.31607 44.6213 9.87868C45.1839 10.4413 45.5 11.2044 45.5 12V15C45.5 15.7956 45.1839 16.5587 44.6213 17.1213C44.0587 17.6839 43.2956 18 42.5 18H30.5C29.7044 18 28.9413 17.6839 28.3787 17.1213C27.8161 16.5587 27.5 15.7956 27.5 15V12Z" stroke="#98A994" stroke-width="3" stroke-linecap="round" stroke-linejoin="round"/>
<path d="M30.499 18V20.94C30.499 23.571 28.597 25.818 25.999 26.25C23.401 26.682 21.499 28.929 21.499 31.56V57C21.499 58.5913 22.1312 60.1174 23.2564 61.2426C24.3816 62.3679 25.9077 63 27.499 63H45.499C47.0903 63 48.6164 62.3679 49.7417 61.2426C50.8669 60.1174 51.499 58.5913 51.499 57V31.56C51.499 28.929 49.597 26.682 46.999 26.25C45.7419 26.0405 44.5998 25.392 43.7758 24.4197C42.9519 23.4475 42.4994 22.2145 42.499 20.94V18" stroke="#98A994" stroke-width="3" stroke-linecap="round" stroke-linejoin="round"/>
<path d="M21.499 36H51.499" stroke="#98A994" stroke-width="3" stroke-linecap="round" stroke-linejoin="round"/>
<path d="M21.499 54H51.499" stroke="#98A994" stroke-width="3" stroke-linecap="round" stroke-linejoin="round"/>
<path d="M33.501 45H39.501" stroke="#98A994" stroke-width="3" stroke-linecap="round" stroke-linejoin="round"/>
</svg>
