<svg width="73" height="72" viewBox="0 0 73 72" fill="none" xmlns="http://www.w3.org/2000/svg">
<path d="M50.001 44.999C46.4206 44.999 42.9868 46.4213 40.455 48.9531C37.9233 51.4848 36.501 54.9186 36.501 58.499C36.501 51.044 31.131 44.999 24.501 44.999M50.001 32.999C46.4206 32.999 42.9868 34.4213 40.455 36.9531C37.9233 39.4848 36.501 42.9186 36.501 46.499C36.501 39.044 31.131 32.999 24.501 32.999M50.001 20.999C46.4206 20.999 42.9868 22.4213 40.455 24.9531C37.9233 27.4848 36.501 30.9186 36.501 34.499C36.501 27.044 31.131 20.999 24.501 20.999M36.501 11.999V29.999" stroke="#98A994" stroke-width="3" stroke-linecap="round" stroke-linejoin="round"/>
</svg>
