<svg width="73" height="72" viewBox="0 0 73 72" fill="none" xmlns="http://www.w3.org/2000/svg">
<path d="M9.5 63H63.5" stroke="#98A994" stroke-width="3" stroke-linecap="round" stroke-linejoin="round"/>
<path d="M9.5 21V24C9.5 26.3869 10.4482 28.6761 12.136 30.364C13.8239 32.0518 16.1131 33 18.5 33C20.8869 33 23.1761 32.0518 24.864 30.364C26.5518 28.6761 27.5 26.3869 27.5 24M9.5 21H63.5M9.5 21L15.5 9H57.5L63.5 21M27.5 24V21M27.5 24C27.5 26.3869 28.4482 28.6761 30.136 30.364C31.8239 32.0518 34.1131 33 36.5 33C38.8869 33 41.1761 32.0518 42.864 30.364C44.5518 28.6761 45.5 26.3869 45.5 24M45.5 24V21M45.5 24C45.5 26.3869 46.4482 28.6761 48.136 30.364C49.8239 32.0518 52.1131 33 54.5 33C56.8869 33 59.1761 32.0518 60.864 30.364C62.5518 28.6761 63.5 26.3869 63.5 24V21" stroke="#98A994" stroke-width="3" stroke-linecap="round" stroke-linejoin="round"/>
<path d="M15.501 63.0008V32.5508" stroke="#98A994" stroke-width="3" stroke-linecap="round" stroke-linejoin="round"/>
<path d="M57.499 63.0008V32.5508" stroke="#98A994" stroke-width="3" stroke-linecap="round" stroke-linejoin="round"/>
<path d="M27.5 63V51C27.5 49.4087 28.1321 47.8826 29.2574 46.7574C30.3826 45.6321 31.9087 45 33.5 45H39.5C41.0913 45 42.6174 45.6321 43.7426 46.7574C44.8679 47.8826 45.5 49.4087 45.5 51V63" stroke="#98A994" stroke-width="3" stroke-linecap="round" stroke-linejoin="round"/>
</svg>
