<svg width="48" height="48" viewBox="0 0 48 48" fill="none" xmlns="http://www.w3.org/2000/svg">
<rect x="0.5" y="0.5" width="47" height="47" rx="23.5" stroke="black"/>
<g clip-path="url(#clip0_16_2152)">
<path d="M13.3335 17.3335H34.6668" stroke="#2C3E50" stroke-linecap="round" stroke-linejoin="round"/>
<path d="M14.6665 17.3335L15.9998 33.3335C15.9998 34.0407 16.2808 34.719 16.7809 35.2191C17.281 35.7192 17.9593 36.0002 18.6665 36.0002H29.3332C30.0404 36.0002 30.7187 35.7192 31.2188 35.2191C31.7189 34.719 31.9998 34.0407 31.9998 33.3335L33.3332 17.3335" stroke="#2C3E50" stroke-linecap="round" stroke-linejoin="round"/>
<path d="M20 17.3333V13.3333C20 12.9797 20.1405 12.6406 20.3905 12.3905C20.6406 12.1405 20.9797 12 21.3333 12H26.6667C27.0203 12 27.3594 12.1405 27.6095 12.3905C27.8595 12.6406 28 12.9797 28 13.3333V17.3333" stroke="#2C3E50" stroke-linecap="round" stroke-linejoin="round"/>
<path d="M21.3335 24L26.6668 29.3333M26.6668 24L21.3335 29.3333" stroke="#2C3E50" stroke-linecap="round" stroke-linejoin="round"/>
</g>
<defs>
<clipPath id="clip0_16_2152">
<rect width="32" height="32" fill="white" transform="translate(8 8)"/>
</clipPath>
</defs>
</svg>
